<?xml version="1.0" standalone="no"?>
<!DOCTYPE svg PUBLIC "-//W3C//DTD SVG 20010904//EN"
 "http://www.w3.org/TR/2001/REC-SVG-20010904/DTD/svg10.dtd">
<svg version="1.0" xmlns="http://www.w3.org/2000/svg"
 width="1240.000000pt" height="600.000000pt" viewBox="0 0 1240.000000 600.000000"
 preserveAspectRatio="xMidYMid meet">

<g transform="translate(0.000000,600.000000) scale(0.100000,-0.100000)"
fill="#8E44AD" stroke="none">
<path d="M6050 5544 c-659 -57 -1215 -308 -1650 -744 -446 -448 -697 -1008
-741 -1652 -42 -608 162 -1250 554 -1741 351 -440 868 -763 1429 -891 341 -78
775 -78 1116 0 641 146 1211 540 1567 1080 79 119 193 343 250 486 164 420
211 896 134 1347 -204 1199 -1229 2084 -2449 2115 -91 2 -185 2 -210 0z m333
-1038 c179 -34 323 -107 453 -229 282 -264 355 -555 239 -958 -65 -227 -198
-494 -390 -783 -181 -275 -473 -650 -499 -640 -49 19 -421 521 -579 781 -58
95 -187 335 -187 347 0 3 18 -3 40 -14 38 -19 47 -20 122 -10 139 19 286 82
398 171 28 22 57 39 63 36 7 -2 23 -34 37 -71 40 -108 69 -84 77 63 l6 99 150
98 150 98 18 -23 c27 -33 83 -215 117 -379 17 -79 32 -146 35 -148 3 -3 14 -1
26 5 24 13 41 68 41 133 0 40 6 53 40 93 22 25 40 55 40 66 0 16 -7 19 -40 19
l-40 0 0 61 c0 56 3 65 35 100 46 52 47 79 1 79 -22 0 -36 6 -40 16 -11 29 -6
140 7 155 6 8 61 60 121 115 115 105 154 161 135 197 -9 15 -17 17 -52 12 -55
-10 -80 -23 -218 -117 l-116 -80 -87 18 c-73 14 -86 20 -80 33 26 61 -8 76
-84 37 -47 -24 -53 -25 -112 -14 -55 11 -61 14 -55 32 16 50 12 61 -23 59 -18
0 -51 -13 -74 -28 -27 -18 -48 -25 -63 -21 -13 3 -56 7 -95 7 -54 1 -76 -3
-88 -15 -9 -8 -13 -18 -10 -21 3 -3 70 -30 149 -61 144 -55 347 -149 384 -180
19 -15 18 -18 -55 -86 -41 -38 -102 -93 -135 -122 l-60 -53 -98 15 c-74 11
-104 12 -122 4 -14 -7 -25 -16 -25 -21 0 -5 32 -27 70 -47 39 -21 70 -42 70
-46 0 -4 -37 -19 -82 -34 -121 -38 -280 -45 -370 -15 -121 40 -201 110 -250
217 -20 43 -22 65 -22 189 0 131 2 146 32 235 43 130 111 245 200 340 123 133
264 218 452 274 73 21 106 25 227 25 83 1 172 -5 216 -13z m-831 -2218 c108
-134 115 -178 27 -178 -77 0 -385 -83 -473 -127 -72 -36 -116 -71 -116 -93 0
-56 247 -153 505 -199 224 -39 405 -52 700 -52 465 -1 806 45 1039 137 155 62
203 108 162 153 -45 50 -325 145 -504 171 -143 21 -144 22 -90 113 70 116 84
121 236 87 277 -62 427 -127 540 -234 59 -55 86 -109 86 -171 0 -221 -390
-406 -964 -459 -460 -42 -962 -22 -1343 55 -315 64 -521 170 -590 304 -58 113
7 265 146 343 80 44 213 98 313 127 83 24 252 63 280 64 7 1 27 -18 46 -41z"/>
</g>
</svg>
